<svg width="109" height="13" viewBox="0 0 109 13" fill="none" xmlns="http://www.w3.org/2000/svg">
<path d="M7.94969 0.768V1.376H4.74969V12H4.02969V1.376H0.829688V0.768H7.94969ZM17.6636 0.768V12H16.9436V6.56H10.3836V12H9.66356V0.768H10.3836V5.952H16.9436V0.768H17.6636ZM26.6722 9.12H21.3442L20.2722 12H19.4882L23.6162 1.024H24.4162L28.5282 12H27.7442L26.6722 9.12ZM26.4482 8.512L24.0162 1.968L21.5682 8.512H26.4482ZM31.0554 0.768V12H30.3354V0.768H31.0554ZM34.4148 11.392H38.5908V12H33.6948V0.768H34.4148V11.392ZM46.5941 9.12H41.2661L40.1941 12H39.4101L43.5381 1.024H44.3381L48.4501 12H47.6661L46.5941 9.12ZM46.3701 8.512L43.9381 1.968L41.4901 8.512H46.3701ZM58.2893 12H57.5693L50.9773 1.952V12H50.2573V0.783999H50.9773L57.5693 10.8V0.783999H58.2893V12ZM64.0812 0.768C65.9799 0.768 67.4412 1.264 68.4652 2.256C69.4999 3.248 70.0172 4.62933 70.0172 6.4C70.0172 8.17067 69.4999 9.54667 68.4652 10.528C67.4412 11.5093 65.9799 12 64.0812 12H60.9292V0.768H64.0812ZM64.0812 11.392C65.7772 11.392 67.0679 10.9547 67.9532 10.08C68.8385 9.19467 69.2812 7.968 69.2812 6.4C69.2812 4.82133 68.8385 3.58933 67.9532 2.704C67.0679 1.81867 65.7772 1.376 64.0812 1.376H61.6492V11.392H64.0812ZM76.5984 12.048C76.4171 12.048 76.2678 11.9893 76.1504 11.872C76.0331 11.7547 75.9744 11.6053 75.9744 11.424C75.9744 11.2427 76.0331 11.0933 76.1504 10.976C76.2678 10.8587 76.4171 10.8 76.5984 10.8C76.7691 10.8 76.9131 10.8587 77.0304 10.976C77.1478 11.0933 77.2064 11.2427 77.2064 11.424C77.2064 11.6053 77.1478 11.7547 77.0304 11.872C76.9131 11.9893 76.7691 12.048 76.5984 12.048ZM88.4647 6.192C89.1154 6.30933 89.6594 6.62933 90.0967 7.152C90.5447 7.67467 90.7687 8.288 90.7687 8.992C90.7687 9.568 90.63 10.0853 90.3527 10.544C90.086 10.992 89.6807 11.3493 89.1367 11.616C88.6034 11.872 87.9527 12 87.1847 12H83.6167V0.768H87.1207C88.2407 0.768 89.0834 1.02933 89.6487 1.552C90.2247 2.064 90.5127 2.73067 90.5127 3.552C90.5127 4.26667 90.3207 4.848 89.9367 5.296C89.5527 5.73333 89.062 6.032 88.4647 6.192ZM84.3367 5.872H87.1527C87.9954 5.872 88.6407 5.67467 89.0887 5.28C89.5474 4.87467 89.7767 4.32 89.7767 3.616C89.7767 2.93333 89.5527 2.39467 89.1047 2C88.6567 1.60533 87.9794 1.408 87.0727 1.408H84.3367V5.872ZM87.1367 11.376C88.0434 11.376 88.7527 11.1627 89.2647 10.736C89.7874 10.2987 90.0487 9.70133 90.0487 8.944C90.0487 8.19733 89.782 7.60533 89.2487 7.168C88.726 6.72 88.006 6.496 87.0887 6.496H84.3367V11.376H87.1367ZM98.7703 12L93.6023 6.704V12H92.8823V0.768H93.6023V6.112L98.7703 0.768H99.6983L94.2263 6.4L99.7143 12H98.7703ZM107.27 12L102.102 6.704V12H101.382V0.768H102.102V6.112L107.27 0.768H108.198L102.726 6.4L108.214 12H107.27Z" fill="#E1FDFF"/>
</svg>
